<mxfile host="app.diagrams.net" modified="2023-07-20T04:51:11.859Z" agent="Mozilla/5.0 (Windows NT 10.0; Win64; x64) AppleWebKit/537.36 (KHTML, like Gecko) Chrome/114.0.0.0 Safari/537.36" etag="1Vad2oUZ_KhhHazcjnMW" version="21.5.2" type="device">
  <diagram name="Page-1" id="BIveafHPb79AB1hQG2ak">
    <mxGraphModel dx="989" dy="482" grid="1" gridSize="10" guides="1" tooltips="1" connect="1" arrows="1" fold="1" page="1" pageScale="1" pageWidth="850" pageHeight="1100" background="#222222" math="0" shadow="0">
      <root>
        <mxCell id="0" />
        <mxCell id="1" parent="0" />
        <mxCell id="S-UQCqA2Io3CpBm_4ipZ-3" style="edgeStyle=orthogonalEdgeStyle;rounded=0;orthogonalLoop=1;jettySize=auto;html=1;exitX=0.5;exitY=1;exitDx=0;exitDy=0;strokeColor=#FAFAFA;" edge="1" parent="1" source="S-UQCqA2Io3CpBm_4ipZ-1" target="S-UQCqA2Io3CpBm_4ipZ-2">
          <mxGeometry relative="1" as="geometry" />
        </mxCell>
        <mxCell id="S-UQCqA2Io3CpBm_4ipZ-1" value="Fetch de instrucciones" style="rounded=1;whiteSpace=wrap;html=1;fillColor=#d5e8d4;strokeColor=#82b366;" vertex="1" parent="1">
          <mxGeometry x="60" y="50" width="120" height="60" as="geometry" />
        </mxCell>
        <mxCell id="S-UQCqA2Io3CpBm_4ipZ-14" style="edgeStyle=orthogonalEdgeStyle;rounded=0;orthogonalLoop=1;jettySize=auto;html=1;exitX=0.5;exitY=1;exitDx=0;exitDy=0;entryX=0.5;entryY=0;entryDx=0;entryDy=0;dashed=1;strokeColor=#97D077;" edge="1" parent="1" source="S-UQCqA2Io3CpBm_4ipZ-2" target="S-UQCqA2Io3CpBm_4ipZ-6">
          <mxGeometry relative="1" as="geometry">
            <Array as="points">
              <mxPoint x="120" y="220" />
              <mxPoint x="120" y="220" />
            </Array>
          </mxGeometry>
        </mxCell>
        <mxCell id="S-UQCqA2Io3CpBm_4ipZ-15" style="edgeStyle=orthogonalEdgeStyle;rounded=0;orthogonalLoop=1;jettySize=auto;html=1;exitX=0;exitY=0.5;exitDx=0;exitDy=0;entryX=0;entryY=0.5;entryDx=0;entryDy=0;strokeColor=#97D077;dashed=1;" edge="1" parent="1" source="S-UQCqA2Io3CpBm_4ipZ-2" target="S-UQCqA2Io3CpBm_4ipZ-7">
          <mxGeometry relative="1" as="geometry" />
        </mxCell>
        <mxCell id="S-UQCqA2Io3CpBm_4ipZ-2" value="Decoding de instrucciones" style="rounded=1;whiteSpace=wrap;html=1;fillColor=#d5e8d4;strokeColor=#82b366;" vertex="1" parent="1">
          <mxGeometry x="60" y="140" width="120" height="60" as="geometry" />
        </mxCell>
        <mxCell id="S-UQCqA2Io3CpBm_4ipZ-11" style="edgeStyle=orthogonalEdgeStyle;rounded=0;orthogonalLoop=1;jettySize=auto;html=1;exitX=0.5;exitY=0;exitDx=0;exitDy=0;entryX=1;entryY=0.5;entryDx=0;entryDy=0;strokeColor=#FFFFFF;" edge="1" parent="1" source="S-UQCqA2Io3CpBm_4ipZ-4" target="S-UQCqA2Io3CpBm_4ipZ-1">
          <mxGeometry relative="1" as="geometry" />
        </mxCell>
        <mxCell id="S-UQCqA2Io3CpBm_4ipZ-17" value="&lt;font style=&quot;&quot; color=&quot;#ffffff&quot;&gt;Instrucciones&lt;/font&gt;" style="edgeLabel;html=1;align=center;verticalAlign=middle;resizable=0;points=[];labelBackgroundColor=none;" vertex="1" connectable="0" parent="S-UQCqA2Io3CpBm_4ipZ-11">
          <mxGeometry x="-0.6782" y="2" relative="1" as="geometry">
            <mxPoint x="37" y="-7" as="offset" />
          </mxGeometry>
        </mxCell>
        <mxCell id="S-UQCqA2Io3CpBm_4ipZ-16" style="edgeStyle=orthogonalEdgeStyle;rounded=0;orthogonalLoop=1;jettySize=auto;html=1;exitX=0.5;exitY=1;exitDx=0;exitDy=0;strokeColor=#FFFFFF;startArrow=classic;startFill=1;" edge="1" parent="1" source="S-UQCqA2Io3CpBm_4ipZ-4">
          <mxGeometry relative="1" as="geometry">
            <mxPoint x="265.0952380952381" y="260" as="targetPoint" />
          </mxGeometry>
        </mxCell>
        <mxCell id="S-UQCqA2Io3CpBm_4ipZ-19" value="Datos" style="edgeLabel;html=1;align=center;verticalAlign=middle;resizable=0;points=[];fontColor=#FFFFFF;labelBackgroundColor=none;" vertex="1" connectable="0" parent="S-UQCqA2Io3CpBm_4ipZ-16">
          <mxGeometry x="-0.1045" y="2" relative="1" as="geometry">
            <mxPoint x="13" y="3" as="offset" />
          </mxGeometry>
        </mxCell>
        <mxCell id="S-UQCqA2Io3CpBm_4ipZ-4" value="Memoria" style="rounded=0;whiteSpace=wrap;html=1;" vertex="1" parent="1">
          <mxGeometry x="220" y="140" width="90" height="60" as="geometry" />
        </mxCell>
        <mxCell id="S-UQCqA2Io3CpBm_4ipZ-8" style="edgeStyle=orthogonalEdgeStyle;rounded=0;orthogonalLoop=1;jettySize=auto;html=1;exitX=0.5;exitY=1;exitDx=0;exitDy=0;strokeColor=#FFFFFF;" edge="1" parent="1" source="S-UQCqA2Io3CpBm_4ipZ-6" target="S-UQCqA2Io3CpBm_4ipZ-7">
          <mxGeometry relative="1" as="geometry" />
        </mxCell>
        <mxCell id="S-UQCqA2Io3CpBm_4ipZ-6" value="Registros" style="rounded=1;whiteSpace=wrap;html=1;fillColor=#dae8fc;strokeColor=#6c8ebf;" vertex="1" parent="1">
          <mxGeometry x="60" y="230" width="120" height="60" as="geometry" />
        </mxCell>
        <mxCell id="S-UQCqA2Io3CpBm_4ipZ-9" style="edgeStyle=orthogonalEdgeStyle;rounded=0;orthogonalLoop=1;jettySize=auto;html=1;exitX=1;exitY=0.5;exitDx=0;exitDy=0;entryX=1;entryY=0.5;entryDx=0;entryDy=0;strokeColor=#FFFFFF;" edge="1" parent="1" source="S-UQCqA2Io3CpBm_4ipZ-7" target="S-UQCqA2Io3CpBm_4ipZ-6">
          <mxGeometry relative="1" as="geometry">
            <Array as="points">
              <mxPoint x="280" y="350" />
              <mxPoint x="280" y="260" />
            </Array>
          </mxGeometry>
        </mxCell>
        <mxCell id="S-UQCqA2Io3CpBm_4ipZ-7" value="Unidad aritmética-lógica (ALU" style="rounded=1;whiteSpace=wrap;html=1;fillColor=#dae8fc;strokeColor=#6c8ebf;" vertex="1" parent="1">
          <mxGeometry x="60" y="320" width="120" height="60" as="geometry" />
        </mxCell>
      </root>
    </mxGraphModel>
  </diagram>
</mxfile>
